<svg width="96" height="96" viewBox="0 0 96 96" fill="none" xmlns="http://www.w3.org/2000/svg">
<circle cx="48" cy="48" r="48" fill="#FFDFE6"/>
<mask id="mask0_11_185" style="mask-type:alpha" maskUnits="userSpaceOnUse" x="0" y="0" width="96" height="96">
<circle cx="48" cy="48" r="48" fill="#FFEADF"/>
</mask>
<g mask="url(#mask0_11_185)">
<path d="M19.8069 70.756L16.7801 95.9996H-1.92871L-1.30852 91.8137C-1.08277 89.0601 -0.393237 86.4162 0.691367 83.9513C2.53 79.8415 5.56741 76.4967 9.29596 74.2008V74.1943C9.48688 74.0724 9.6791 73.9686 9.87003 73.8521C12.8668 72.1251 16.2583 71.0463 19.8069 70.756Z" fill="#186BE7"/>
<path d="M96.8254 95.9996H78.0637L74.8398 69.069C76.9691 69.2434 79.0496 69.7014 81.015 70.4196C86.6918 72.4721 91.463 76.6354 93.9563 82.2758C95.041 84.723 95.7247 87.3727 95.9562 90.127L96.8254 95.9996Z" fill="#186BE7"/>
<path d="M84.2603 72.1138L81.0617 96H12.1598L9.2959 74.2008V74.1944C9.48682 74.0724 9.67904 73.9686 9.86997 73.8522C14.1929 71.303 24.0069 68.3705 31.0177 66.468C35.964 65.1266 41.0664 64.4616 46.1931 64.4848L51.6442 64.5106C55.4501 64.5277 59.2422 64.9267 62.9698 65.6994C69.0017 66.9482 77.9514 68.9529 81.0133 70.42C82.1859 70.9702 83.2696 71.5394 84.2603 72.1138Z" fill="#FF7029"/>
<path d="M63.3849 41.2078C63.3849 41.2078 64.9301 45.4446 58.0212 47.9066L58.5018 82.5343L38.0078 73.3482L39.8265 53.3316L47.6889 49.9526L49.5637 46.566C49.5637 46.566 52.2854 43.0545 52.6143 42.7087C52.9426 42.3627 55.8546 39.801 55.8546 39.801L62.1126 41.6893L63.3849 41.2078Z" fill="#FAB9C9"/>
<path d="M54.4919 51.4601C55.7774 46.3661 52.4559 46.5554 48.7289 48.077L47.6908 49.9524L40.3952 53.0875L39.6225 55.8031L38.9014 64.4715C38.901 64.4715 51.8653 61.8721 54.4919 51.4601Z" fill="#1B1E28"/>
<path d="M34.1499 38.3844C34.1499 38.3844 28.4643 35.8076 30.4613 29.9617C32.458 24.1159 32.5077 24.1162 32.0932 21.3607C31.6782 18.6055 32.7379 11.7463 40.7855 13.6682C48.8338 15.5903 49.9236 15.798 54.0311 14.0826C58.1386 12.3672 63.8054 16.1102 62.9214 25.2073C62.1706 32.9395 60.5316 30.8009 62.0893 34.9419C63.6477 39.0827 62.7311 40.1176 60.0004 40.7704C53.6737 42.2823 50.6008 39.2675 50.6008 39.1252C50.6008 38.983 49.353 35.8121 48.5732 35.3964C47.7934 34.9803 40.6711 33.0053 40.5156 33.213C40.3595 33.4207 38.0087 36.6825 38.0087 36.6825L34.1499 38.3844Z" fill="#1B1E28"/>
<path d="M30.9012 39.2423C33.2119 39.3681 35.5553 39.2549 37.8703 39.2336C38.0512 39.232 38.0519 38.9501 37.8703 38.9518C35.5553 38.9701 33.2103 38.8956 30.9012 39.0608C30.7847 39.0685 30.7838 39.2368 30.9012 39.2423Z" fill="#1B1E28"/>
<path d="M34.1628 30.4045V48.2597C34.1628 48.2597 33.6049 56.7378 39.9693 57.0778C46.3337 57.4177 50.1713 57.1023 52.2366 54.8428C54.3014 52.5836 56.2448 48.5509 54.7864 37.8381C53.3293 27.1246 51.7993 25.3034 51.7993 25.3034L43.8555 22.8981L36.3485 24.2097L34.1628 30.4045Z" fill="#FAB9C9"/>
<path d="M34.1533 49.0159C34.1923 51.1003 34.7738 56.8007 39.9698 57.0777C46.3342 57.4177 50.1718 57.1023 52.2371 54.8428C53.7742 53.1609 55.2423 50.494 55.2923 44.8223C55.2829 42.9785 55.1297 40.8332 54.7872 38.3141C54.5876 36.8428 54.4099 35.5066 54.2512 34.2875C52.9783 26.7072 51.8001 25.3037 51.8001 25.3037L43.8564 22.8984L36.3493 24.21L34.2643 30.1191L34.1633 30.8805V31.0624C34.1633 31.0624 34.5458 30.0788 36.1313 30.1336C37.7167 30.1881 37.5523 29.4408 39.4106 27.3819C41.2695 25.3237 42.1803 27.9286 43.6487 29.1493C45.1171 30.37 47.1905 28.7484 49.5951 28.6755C52.0007 28.6023 51.5263 31.4814 51.0716 32.2651C50.6156 33.0484 50.1966 34.1598 51.655 34.6884C53.1121 35.2164 53.6217 35.4531 53.8049 39.0239C53.9864 42.5951 53.0212 45.1281 51.1806 46.3298C49.3407 47.5327 45.4599 47.2592 42.7631 45.2006C40.0666 43.1417 37.1417 45.119 35.7307 45.7289C34.9854 46.0505 34.2623 45.6338 34.1636 45.5728V48.2593V48.735C34.1633 48.7357 34.1569 48.8392 34.1533 49.0159Z" fill="#E5A0B1"/>
<path d="M39.6604 35.0293C39.3715 37.3217 39.0273 39.9102 39.3312 42.2048C39.4427 43.0479 39.9404 43.7 41.0785 43.4626C41.3694 43.4017 41.2456 43.0537 40.955 43.1011C39.1667 43.3936 39.782 39.6867 39.7991 39.0358C39.8356 37.7003 39.9001 36.3654 39.8856 35.0293C39.8839 34.9103 39.6743 34.9148 39.6604 35.0293Z" fill="#EAAABA"/>
<path d="M43.3924 41.0484C43.9062 41.0484 44.3228 40.6318 44.3228 40.1179C44.3228 39.6041 43.9062 39.1875 43.3924 39.1875C42.8785 39.1875 42.4619 39.6041 42.4619 40.1179C42.4619 40.6318 42.8785 41.0484 43.3924 41.0484Z" fill="#1B1E28"/>
<path d="M36.3279 41.0484C36.8418 41.0484 37.2583 40.6318 37.2583 40.1179C37.2583 39.6041 36.8418 39.1875 36.3279 39.1875C35.814 39.1875 35.3975 39.6041 35.3975 40.1179C35.3975 40.6318 35.814 41.0484 36.3279 41.0484Z" fill="#1B1E28"/>
<path d="M34.6141 36.8763C35.1601 36.6567 35.6126 36.348 36.2166 36.2742C36.8842 36.1906 37.4193 36.3845 38.0372 36.5941C38.2936 36.6805 38.3942 36.3274 38.2085 36.1887C37.2203 35.4511 35.1617 35.5708 34.4386 36.6476C34.3664 36.7541 34.488 36.9276 34.6141 36.8763Z" fill="#1B1E28"/>
<path d="M42.5812 36.5874C43.1543 36.3652 43.6062 36.1172 44.248 36.1466C44.8897 36.1766 45.4125 36.4417 46.004 36.651C46.2617 36.7426 46.3575 36.3852 46.1746 36.2456C45.2406 35.5322 43.165 35.2477 42.4051 36.3588C42.3309 36.4655 42.4551 36.6361 42.5812 36.5874Z" fill="#1B1E28"/>
<path d="M48.1864 41.8953C48.5163 42.7067 47.8897 43.7275 46.786 44.1761C45.6824 44.6253 44.521 44.3309 44.1914 43.5198C43.8615 42.7099 44.4888 41.6889 45.5924 41.2396C46.6954 40.792 47.8574 41.0848 48.1864 41.8953Z" fill="#EAAABA"/>
<path d="M35.6402 41.4183C35.1361 41.1922 34.6152 41.1235 34.1611 41.1909V44.2957C34.2114 44.3222 34.2624 44.348 34.3156 44.3718C35.4247 44.8695 36.6216 44.6124 36.987 43.7962C37.3527 42.9815 36.7493 41.9172 35.6402 41.4183Z" fill="#EAAABA"/>
<path d="M38.9077 38.5736C39.0992 40.5616 38.0088 42.4893 36.0012 43.0185C33.7378 43.6151 31.4354 42.0603 31.0858 39.7737C30.7581 37.6239 32.2488 35.6104 34.3954 35.2818C36.6214 34.9425 38.4716 36.4689 38.9112 38.603C38.9402 38.7414 39.1505 38.6823 39.1215 38.5453C38.6635 36.3212 36.6843 34.6768 34.348 35.0457C32.0956 35.4018 30.5169 37.5487 30.8475 39.805C31.1774 42.0571 33.3508 43.6513 35.5945 43.322C37.934 42.9791 39.3443 40.8412 39.1263 38.573C39.1128 38.4353 38.8944 38.4343 38.9077 38.5736Z" fill="#1B1E28"/>
<path d="M48.9327 39.2799C48.817 41.4291 47.205 43.2471 44.9655 43.2471C42.815 43.2471 40.9977 41.4291 40.9977 39.2799C40.9977 37.2775 42.5661 35.5627 44.5414 35.3569C46.9367 35.1089 48.8076 36.9414 48.9327 39.2799C48.9402 39.4196 49.1588 39.4205 49.1514 39.2799C49.0285 37.0059 47.3392 35.0941 44.9655 35.0941C42.6941 35.0941 40.7684 37.0007 40.7793 39.2799C40.79 41.4782 42.5444 43.3378 44.7433 43.4529C47.2025 43.5822 49.024 41.641 49.1514 39.2799C49.1591 39.139 48.9405 39.139 48.9327 39.2799Z" fill="#1B1E28"/>
<path d="M38.9381 39.0392C39.5383 39.1456 40.2584 39.1511 40.8625 39.0663C40.947 39.0547 40.947 38.9086 40.8625 38.8967C40.2584 38.8131 39.5396 38.8176 38.9381 38.9241C38.88 38.9337 38.88 39.0286 38.9381 39.0392Z" fill="#1B1E28"/>
<path d="M48.8659 39.1129C51.177 39.2384 53.5204 39.1252 55.835 39.1042C56.0159 39.1026 56.0166 38.8204 55.835 38.8217C53.52 38.8404 51.1751 38.7659 48.8659 38.9307C48.7495 38.9391 48.7488 39.1065 48.8659 39.1129Z" fill="#1B1E28"/>
<path d="M63.3701 41.2076C61.6424 36.8041 55.0245 39.8008 55.0245 39.8008L54.4873 44.108L57.7487 42.8628C57.8658 43.155 60.9064 43.2133 60.9064 43.2133L63.3701 41.2076Z" fill="#FAB9C9"/>
<path d="M57.5929 40.0122C59.407 39.7345 61.1589 41.3238 60.9528 43.1776C60.9212 43.4692 60.4603 43.4724 60.4916 43.1776C60.6609 41.6538 59.2619 40.2199 57.7151 40.4563C57.4248 40.5011 57.3 40.0573 57.5929 40.0122Z" fill="#E6A0B1"/>
<path d="M60.1038 41.3654C59.3436 41.6976 58.7747 42.311 58.5264 43.1063C58.4393 43.3895 57.9942 43.2685 58.0829 42.9841C58.3625 42.083 59.0034 41.3463 59.8712 40.9674C60.1412 40.85 60.376 41.2467 60.1038 41.3654Z" fill="#E6A0B1"/>
<path d="M36.8142 15.4448C34.1528 17.2438 33.6081 20.6646 34.8368 23.505C34.8765 23.5972 35.0107 23.5172 34.9716 23.4263C33.7787 20.6701 34.3034 17.3295 36.8928 15.5793C36.976 15.5232 36.8974 15.3877 36.8142 15.4448Z" fill="white"/>
<path d="M32.1837 34.6557C32.4065 35.1056 32.6107 35.5603 32.8855 35.9815C32.9403 36.0654 33.0758 35.9873 33.0203 35.9028C32.7449 35.4813 32.541 35.0265 32.3185 34.5773C32.274 34.4873 32.1392 34.5663 32.1837 34.6557Z" fill="white"/>
<path d="M51.877 29.6779C51.877 29.8515 51.877 30.0243 51.877 30.1978C51.877 30.2981 52.0331 30.2981 52.0331 30.1978C52.0331 30.0243 52.0331 29.8515 52.0331 29.6779C52.0331 29.5776 51.877 29.5776 51.877 29.6779Z" fill="white"/>
<path d="M51.6765 31.9261C51.6294 31.99 51.6197 32.0703 51.5726 32.1341C51.5126 32.2151 51.6481 32.2925 51.7074 32.2128C51.7552 32.149 51.7648 32.0687 51.8113 32.0048C51.8709 31.9239 51.7355 31.8458 51.6765 31.9261Z" fill="white"/>
<path d="M60.7088 31.6017C60.525 33.3532 60.5601 34.7552 61.2316 36.4048C61.2693 36.4967 61.42 36.4571 61.3822 36.3639C60.722 34.7413 60.6843 33.3184 60.8649 31.6017C60.8759 31.5014 60.7191 31.5023 60.7088 31.6017Z" fill="white"/>
<path d="M39.9691 57.0778C46.3335 57.4177 50.1711 57.1023 52.2364 54.8428C54.3011 52.5836 56.2446 48.551 54.7862 37.8381C53.3291 27.1246 53.0314 23.3096 53.0314 23.3096L47.4946 20.3071L35.3998 21.0482L34.1626 30.4042V30.5861C34.1626 30.5861 34.5451 29.6028 36.1306 29.657C37.716 29.7118 37.5516 28.9645 39.4099 26.906C41.2688 24.8477 42.1796 27.4526 43.648 28.6733C45.1164 29.8937 47.1898 28.2724 49.5944 28.1996C52 28.1263 51.5256 31.0051 51.0709 31.7888C50.6149 32.5725 50.1959 33.6835 51.6543 34.2121C53.1114 34.7404 53.621 34.9768 53.8042 38.5476C53.9857 42.1188 53.0205 44.6518 51.1799 45.8538C49.34 47.0564 45.4592 46.7833 42.7624 44.7244C40.0658 42.6658 37.141 44.6431 35.73 45.253C34.9847 45.5742 34.2616 45.1575 34.1629 45.0969V48.2594C34.1626 48.2597 33.6047 56.7379 39.9691 57.0778Z" fill="#1B1E28"/>
<path d="M33.4178 25.1035C33.4746 26.7405 32.4761 28.0696 31.8585 29.5177C31.4218 30.541 31.3596 31.6505 31.3905 32.7451C31.3931 32.8454 31.5492 32.846 31.5463 32.7451C31.4992 31.0796 31.8798 29.7786 32.6067 28.2941C33.1308 27.2246 33.6159 26.3223 33.5736 25.1035C33.5704 25.0032 33.4143 25.0029 33.4178 25.1035Z" fill="white"/>
<path d="M51.8299 17.5889C53.6673 17.8698 55.5453 17.4819 57.3549 17.9956C60.8748 18.9938 60.0546 24.2201 58.9574 26.676C58.9165 26.7669 59.0513 26.846 59.0916 26.7544C60.1875 24.3023 60.6293 21.1188 58.9158 18.8335C57.4065 16.821 53.9679 17.7589 51.8715 17.4386C51.7735 17.4235 51.7306 17.5738 51.8299 17.5889Z" fill="white"/>
<path d="M42.9327 25.8312C43.09 30.5373 48.9897 25.3091 51.0138 27.6541C51.0793 27.7299 51.1896 27.6196 51.1241 27.5435C49.0568 25.1478 43.2365 30.2487 43.0891 25.8309C43.0859 25.7309 42.9298 25.7306 42.9327 25.8312Z" fill="white"/>
<path d="M39.7371 57.191C42.3488 57.2081 45.0011 57.5248 47.6009 57.1443C50.4003 56.7344 52.3044 55.6459 53.7624 53.2142C53.814 53.1277 53.6792 53.0497 53.6276 53.1358C52.0277 55.8026 49.8052 56.7863 46.7775 57.0775C44.438 57.3023 42.0792 57.0501 39.7371 57.0349C39.6371 57.0343 39.6371 57.1904 39.7371 57.191Z" fill="white"/>
<path d="M39.3625 47.0697C40.0175 48.531 42.7224 47.9427 42.725 46.347C42.725 46.1767 42.4912 46.1135 42.405 46.2605C42.1003 46.7801 41.9006 47.2684 41.2498 47.4361C40.5683 47.6122 40.0707 47.2516 39.5473 46.8843C39.4241 46.7982 39.3135 46.9601 39.3625 47.0697Z" fill="white"/>
<path d="M38.541 68.7211C44.2108 75.3606 50.3952 74.4943 56.9161 68.7211L56.9167 95.9994H38.5413V68.7211H38.541Z" fill="#E3EEF1"/>
<path d="M39.0392 61.8306L26.1543 66.2528C32.0904 76.4387 35.2314 86.3246 35.2043 95.8722H40.9633C43.914 85.5709 42.9049 74.1169 39.0392 61.8306Z" fill="#186BE7"/>
<path d="M58.0675 61.8306L70.9527 66.2528C65.016 76.4387 61.8754 86.3246 61.9021 95.8722H56.143C53.1934 85.5709 54.2022 74.1169 58.0675 61.8306Z" fill="#186BE7"/>
</g>
</svg>
